<mxfile host="app.diagrams.net" agent="Mozilla/5.0 (Windows NT 10.0; Win64; x64) AppleWebKit/537.36 (KHTML, like Gecko) Chrome/131.0.0.0 Safari/537.36" version="25.0.0">
  <diagram name="第 1 页" id="Al3chBj7ou7gy0yUVHI9">
    <mxGraphModel dx="344" dy="402" grid="0" gridSize="10" guides="1" tooltips="1" connect="1" arrows="1" fold="1" page="1" pageScale="1" pageWidth="827" pageHeight="1169" background="none" math="0" shadow="0">
      <root>
        <mxCell id="0" />
        <mxCell id="1" parent="0" />
        <mxCell id="wGypype_ci3G31B38WZZ-55" value="" style="rounded=1;whiteSpace=wrap;html=1;dashed=1;fillColor=none;" vertex="1" parent="1">
          <mxGeometry x="290" y="228.88" width="70" height="52.25" as="geometry" />
        </mxCell>
        <mxCell id="wGypype_ci3G31B38WZZ-1" value="&lt;font style=&quot;font-size: 9px;&quot;&gt;动态张量光子核心&lt;/font&gt;" style="rounded=0;whiteSpace=wrap;html=1;fillColor=#fff2cc;strokeColor=#d6b656;" vertex="1" parent="1">
          <mxGeometry x="200" y="220" width="40" height="50" as="geometry" />
        </mxCell>
        <mxCell id="wGypype_ci3G31B38WZZ-2" value="&lt;font style=&quot;font-size: 8px;&quot;&gt;调制器&lt;/font&gt;" style="rounded=0;whiteSpace=wrap;html=1;fillColor=#ffe6cc;strokeColor=#d79b00;" vertex="1" parent="1">
          <mxGeometry x="200" y="200" width="40" height="20" as="geometry" />
        </mxCell>
        <mxCell id="wGypype_ci3G31B38WZZ-3" value="&lt;div style=&quot;&quot;&gt;&lt;span style=&quot;font-size: 8px; background-color: initial;&quot;&gt;数字模拟转换器&lt;/span&gt;&lt;/div&gt;" style="rounded=0;whiteSpace=wrap;html=1;align=center;" vertex="1" parent="1">
          <mxGeometry x="200" y="180" width="40" height="20" as="geometry" />
        </mxCell>
        <mxCell id="wGypype_ci3G31B38WZZ-4" value="&lt;font style=&quot;font-size: 8px;&quot;&gt;输入缓冲&lt;/font&gt;" style="rounded=0;whiteSpace=wrap;html=1;fillColor=#fad7ac;strokeColor=#b46504;" vertex="1" parent="1">
          <mxGeometry x="200" y="160" width="40" height="20" as="geometry" />
        </mxCell>
        <mxCell id="wGypype_ci3G31B38WZZ-5" value="" style="endArrow=classic;html=1;rounded=0;strokeWidth=1;curved=0;endSize=3;" edge="1" parent="1">
          <mxGeometry width="50" height="50" relative="1" as="geometry">
            <mxPoint x="180" y="240" as="sourcePoint" />
            <mxPoint x="200" y="240" as="targetPoint" />
          </mxGeometry>
        </mxCell>
        <mxCell id="wGypype_ci3G31B38WZZ-6" value="" style="endArrow=classic;html=1;rounded=0;endSize=3;" edge="1" parent="1">
          <mxGeometry width="50" height="50" relative="1" as="geometry">
            <mxPoint x="180" y="255" as="sourcePoint" />
            <mxPoint x="200" y="255" as="targetPoint" />
          </mxGeometry>
        </mxCell>
        <mxCell id="wGypype_ci3G31B38WZZ-7" value="" style="endArrow=classic;html=1;rounded=0;endSize=3;" edge="1" parent="1">
          <mxGeometry width="50" height="50" relative="1" as="geometry">
            <mxPoint x="180" y="270" as="sourcePoint" />
            <mxPoint x="200" y="270" as="targetPoint" />
          </mxGeometry>
        </mxCell>
        <mxCell id="wGypype_ci3G31B38WZZ-8" value="&lt;font&gt;光信号广播&lt;/font&gt;" style="text;html=1;align=center;verticalAlign=middle;whiteSpace=wrap;rounded=0;fontSize=9;" vertex="1" parent="1">
          <mxGeometry x="170" y="230" width="10" height="50" as="geometry" />
        </mxCell>
        <mxCell id="wGypype_ci3G31B38WZZ-10" value="&lt;font style=&quot;font-size: 9px;&quot;&gt;动态张量光子核心&lt;/font&gt;" style="rounded=0;whiteSpace=wrap;html=1;fillColor=#fff2cc;strokeColor=#d6b656;" vertex="1" parent="1">
          <mxGeometry x="200" y="380" width="40" height="50" as="geometry" />
        </mxCell>
        <mxCell id="wGypype_ci3G31B38WZZ-11" value="&lt;font style=&quot;font-size: 8px;&quot;&gt;调制器&lt;/font&gt;" style="rounded=0;whiteSpace=wrap;html=1;fillColor=#ffe6cc;strokeColor=#d79b00;" vertex="1" parent="1">
          <mxGeometry x="200" y="360" width="40" height="20" as="geometry" />
        </mxCell>
        <mxCell id="wGypype_ci3G31B38WZZ-12" value="&lt;div style=&quot;&quot;&gt;&lt;span style=&quot;font-size: 8px; background-color: initial;&quot;&gt;数字模拟转换器&lt;/span&gt;&lt;/div&gt;" style="rounded=0;whiteSpace=wrap;html=1;align=center;" vertex="1" parent="1">
          <mxGeometry x="200" y="340" width="40" height="20" as="geometry" />
        </mxCell>
        <mxCell id="wGypype_ci3G31B38WZZ-13" value="&lt;font style=&quot;font-size: 8px;&quot;&gt;输入缓冲&lt;/font&gt;" style="rounded=0;whiteSpace=wrap;html=1;fillColor=#fad7ac;strokeColor=#b46504;" vertex="1" parent="1">
          <mxGeometry x="200" y="320" width="40" height="20" as="geometry" />
        </mxCell>
        <mxCell id="wGypype_ci3G31B38WZZ-14" value="" style="endArrow=classic;html=1;rounded=0;strokeWidth=1;curved=0;endSize=3;" edge="1" parent="1">
          <mxGeometry width="50" height="50" relative="1" as="geometry">
            <mxPoint x="180" y="400" as="sourcePoint" />
            <mxPoint x="200" y="400" as="targetPoint" />
          </mxGeometry>
        </mxCell>
        <mxCell id="wGypype_ci3G31B38WZZ-15" value="" style="endArrow=classic;html=1;rounded=0;endSize=3;" edge="1" parent="1">
          <mxGeometry width="50" height="50" relative="1" as="geometry">
            <mxPoint x="180" y="415" as="sourcePoint" />
            <mxPoint x="200" y="415" as="targetPoint" />
          </mxGeometry>
        </mxCell>
        <mxCell id="wGypype_ci3G31B38WZZ-16" value="" style="endArrow=classic;html=1;rounded=0;endSize=3;" edge="1" parent="1">
          <mxGeometry width="50" height="50" relative="1" as="geometry">
            <mxPoint x="180" y="430" as="sourcePoint" />
            <mxPoint x="200" y="430" as="targetPoint" />
          </mxGeometry>
        </mxCell>
        <mxCell id="wGypype_ci3G31B38WZZ-17" value="&lt;font&gt;光信号广播&lt;/font&gt;" style="text;html=1;align=center;verticalAlign=middle;whiteSpace=wrap;rounded=0;fontSize=9;" vertex="1" parent="1">
          <mxGeometry x="170" y="390" width="10" height="50" as="geometry" />
        </mxCell>
        <mxCell id="wGypype_ci3G31B38WZZ-18" value="" style="ellipse;whiteSpace=wrap;html=1;aspect=fixed;fontSize=10;fillColor=#000000;" vertex="1" parent="1">
          <mxGeometry x="219" y="290" width="2" height="2" as="geometry" />
        </mxCell>
        <mxCell id="wGypype_ci3G31B38WZZ-19" value="" style="ellipse;whiteSpace=wrap;html=1;aspect=fixed;fontSize=10;fillColor=#000000;" vertex="1" parent="1">
          <mxGeometry x="219" y="300" width="2" height="2" as="geometry" />
        </mxCell>
        <mxCell id="wGypype_ci3G31B38WZZ-20" value="" style="ellipse;whiteSpace=wrap;html=1;aspect=fixed;fontSize=10;fillColor=#000000;" vertex="1" parent="1">
          <mxGeometry x="219" y="310" width="2" height="2" as="geometry" />
        </mxCell>
        <mxCell id="wGypype_ci3G31B38WZZ-23" value="" style="endArrow=classic;html=1;rounded=0;strokeWidth=1;curved=0;endSize=3;" edge="1" parent="1">
          <mxGeometry width="50" height="50" relative="1" as="geometry">
            <mxPoint x="240" y="390" as="sourcePoint" />
            <mxPoint x="260" y="390" as="targetPoint" />
          </mxGeometry>
        </mxCell>
        <mxCell id="wGypype_ci3G31B38WZZ-24" value="" style="endArrow=classic;html=1;rounded=0;strokeWidth=1;curved=0;endSize=3;" edge="1" parent="1">
          <mxGeometry width="50" height="50" relative="1" as="geometry">
            <mxPoint x="240" y="254.76" as="sourcePoint" />
            <mxPoint x="260" y="254.76" as="targetPoint" />
          </mxGeometry>
        </mxCell>
        <mxCell id="wGypype_ci3G31B38WZZ-25" value="" style="rounded=0;whiteSpace=wrap;html=1;" vertex="1" parent="1">
          <mxGeometry x="260" y="230" width="20" height="200" as="geometry" />
        </mxCell>
        <mxCell id="wGypype_ci3G31B38WZZ-26" value="DPTC互连网络" style="text;html=1;align=center;verticalAlign=middle;whiteSpace=wrap;rounded=0;rotation=90;" vertex="1" parent="1">
          <mxGeometry x="200" y="292" width="140" height="50" as="geometry" />
        </mxCell>
        <mxCell id="wGypype_ci3G31B38WZZ-29" value="" style="endArrow=classic;html=1;rounded=0;strokeWidth=1;curved=0;endSize=3;" edge="1" parent="1">
          <mxGeometry width="50" height="50" relative="1" as="geometry">
            <mxPoint x="280" y="390" as="sourcePoint" />
            <mxPoint x="300" y="390" as="targetPoint" />
          </mxGeometry>
        </mxCell>
        <mxCell id="wGypype_ci3G31B38WZZ-30" value="" style="rounded=0;whiteSpace=wrap;html=1;" vertex="1" parent="1">
          <mxGeometry x="300" y="370" width="50" height="30" as="geometry" />
        </mxCell>
        <mxCell id="wGypype_ci3G31B38WZZ-31" value="&lt;font style=&quot;font-size: 8px;&quot;&gt;信号转换单元&lt;/font&gt;" style="text;html=1;align=center;verticalAlign=middle;whiteSpace=wrap;rounded=0;" vertex="1" parent="1">
          <mxGeometry x="305" y="370" width="40" height="25" as="geometry" />
        </mxCell>
        <mxCell id="wGypype_ci3G31B38WZZ-32" value="" style="endArrow=classic;html=1;rounded=0;strokeWidth=1;curved=0;endSize=3;" edge="1" parent="1">
          <mxGeometry width="50" height="50" relative="1" as="geometry">
            <mxPoint x="350" y="380" as="sourcePoint" />
            <mxPoint x="370" y="380" as="targetPoint" />
          </mxGeometry>
        </mxCell>
        <mxCell id="wGypype_ci3G31B38WZZ-34" value="" style="rounded=0;whiteSpace=wrap;html=1;" vertex="1" parent="1">
          <mxGeometry x="370" y="370" width="50" height="30" as="geometry" />
        </mxCell>
        <mxCell id="wGypype_ci3G31B38WZZ-35" value="&lt;span style=&quot;font-size: 8px;&quot;&gt;累加单元&lt;/span&gt;" style="text;html=1;align=center;verticalAlign=middle;whiteSpace=wrap;rounded=0;" vertex="1" parent="1">
          <mxGeometry x="375" y="372.5" width="45" height="25" as="geometry" />
        </mxCell>
        <mxCell id="wGypype_ci3G31B38WZZ-39" value="" style="endArrow=classic;html=1;rounded=0;strokeWidth=1;curved=0;endSize=3;" edge="1" parent="1">
          <mxGeometry width="50" height="50" relative="1" as="geometry">
            <mxPoint x="394" y="399.52" as="sourcePoint" />
            <mxPoint x="394" y="420" as="targetPoint" />
          </mxGeometry>
        </mxCell>
        <mxCell id="wGypype_ci3G31B38WZZ-40" value="输出缓冲区" style="rounded=0;whiteSpace=wrap;html=1;fillColor=#fad7ac;strokeColor=#b46504;" vertex="1" parent="1">
          <mxGeometry x="300" y="420" width="120" height="20" as="geometry" />
        </mxCell>
        <mxCell id="wGypype_ci3G31B38WZZ-47" value="" style="shape=trapezoid;perimeter=trapezoidPerimeter;whiteSpace=wrap;html=1;fixedSize=1;rotation=-90;strokeWidth=0;fillColor=#FFCCCC;" vertex="1" parent="1">
          <mxGeometry x="281.57" y="274.5" width="81.87" height="85" as="geometry" />
        </mxCell>
        <mxCell id="wGypype_ci3G31B38WZZ-48" value="&lt;font style=&quot;font-size: 9px;&quot;&gt;数字模拟转换器&lt;/font&gt;" style="rounded=0;whiteSpace=wrap;html=1;" vertex="1" parent="1">
          <mxGeometry x="297.5" y="294.25" width="55" height="32" as="geometry" />
        </mxCell>
        <mxCell id="wGypype_ci3G31B38WZZ-50" value="" style="rounded=1;whiteSpace=wrap;html=1;dashed=1;fillColor=none;" vertex="1" parent="1">
          <mxGeometry x="290" y="292" width="70" height="52.25" as="geometry" />
        </mxCell>
        <mxCell id="wGypype_ci3G31B38WZZ-52" value="&lt;font style=&quot;font-size: 8px;&quot;&gt;高频5Ghz&lt;/font&gt;" style="text;html=1;align=center;verticalAlign=middle;whiteSpace=wrap;rounded=0;" vertex="1" parent="1">
          <mxGeometry x="292.5" y="316.25" width="60" height="30" as="geometry" />
        </mxCell>
        <mxCell id="wGypype_ci3G31B38WZZ-54" value="M1&lt;div&gt;SRAM&lt;/div&gt;" style="rounded=0;whiteSpace=wrap;html=1;fillColor=#f8cecc;strokeColor=#b85450;" vertex="1" parent="1">
          <mxGeometry x="297.5" y="244.5" width="55" height="30" as="geometry" />
        </mxCell>
        <mxCell id="wGypype_ci3G31B38WZZ-53" value="&lt;font style=&quot;font-size: 10px;&quot;&gt;输入缓冲&lt;/font&gt;" style="rounded=0;whiteSpace=wrap;html=1;fillColor=#d5e8d4;strokeColor=#82b366;" vertex="1" parent="1">
          <mxGeometry x="300" y="270" width="50" height="30" as="geometry" />
        </mxCell>
        <mxCell id="wGypype_ci3G31B38WZZ-56" value="&lt;span style=&quot;color: rgb(0, 0, 0); font-family: Helvetica; font-size: 8px; font-style: normal; font-variant-ligatures: normal; font-variant-caps: normal; font-weight: 400; letter-spacing: normal; orphans: 2; text-align: center; text-indent: 0px; text-transform: none; widows: 2; word-spacing: 0px; -webkit-text-stroke-width: 0px; white-space: normal; background-color: rgb(251, 251, 251); text-decoration-thickness: initial; text-decoration-style: initial; text-decoration-color: initial; display: inline !important; float: none;&quot;&gt;低频500Mhz&lt;/span&gt;" style="text;whiteSpace=wrap;html=1;" vertex="1" parent="1">
          <mxGeometry x="300" y="220" width="70" height="40" as="geometry" />
        </mxCell>
      </root>
    </mxGraphModel>
  </diagram>
</mxfile>
